<?xml version="1.0" encoding="utf-8"?>
<!-- Generator: Adobe Illustrator 21.0.2, SVG Export Plug-In . SVG Version: 6.00 Build 0)  -->
<svg version="1.1" id="Layer_1" xmlns="http://www.w3.org/2000/svg" xmlns:xlink="http://www.w3.org/1999/xlink" x="0px" y="0px"
	 viewBox="0 0 48.7 14.5" style="enable-background:new 0 0 48.7 14.5;" xml:space="preserve">
<style type="text/css">
	.st0{fill:#9D9D9D;}
</style>
<title>Artboard 1</title>
<g>
	<path class="st0" d="M10,4.1c0.3,0,0.5,0,0.9,0.1c0.2,0.1,0.5,0.2,0.8,0.2l-0.2,0.8c-0.2-0.2-0.5-0.2-0.7-0.3
		c-0.2,0-0.5-0.1-0.7-0.1C9.7,4.8,9.3,4.8,9.2,5C8.9,5.2,8.9,5.4,8.9,5.7c0,0.2,0.1,0.4,0.2,0.5s0.4,0.2,0.8,0.4l0.6,0.2
		c0.5,0.2,0.9,0.4,1,0.7c0.2,0.3,0.4,0.6,0.4,1c0,0.2-0.1,0.5-0.2,0.7c-0.1,0.2-0.2,0.4-0.5,0.5c-0.2,0.2-0.4,0.2-0.6,0.3
		c-0.2,0.1-0.5,0.1-0.9,0.1c-0.3,0-0.6,0-0.9-0.1C8.6,10,8.2,9.9,7.9,9.8l0.2-0.7c0.2,0.2,0.5,0.2,0.8,0.3c0.2,0.1,0.5,0.1,0.8,0.1
		c0.3,0,0.6-0.1,0.9-0.2C10.9,9.1,11,8.9,11,8.5c0-0.1,0-0.2-0.1-0.3s0-0.2-0.2-0.2c-0.1-0.1-0.2-0.2-0.3-0.2
		c-0.2-0.1-0.3-0.2-0.5-0.2L9.3,7.4C8.9,7.2,8.6,7,8.3,6.7C8.1,6.5,7.9,6.2,7.9,5.8c0-0.5,0.2-0.9,0.5-1.3S9.3,4.1,10,4.1z"/>
	<path class="st0" d="M12.9,6.1c0.2-0.1,0.3-0.2,0.4-0.2c0.2-0.1,0.2-0.1,0.4-0.2s0.2-0.1,0.4-0.1s0.3,0,0.5,0c0.2,0,0.5,0,0.7,0.1
		s0.4,0.2,0.5,0.2c0.2,0.2,0.2,0.3,0.3,0.5c0.1,0.2,0.2,0.5,0.2,0.8v2.9h-0.7l-0.1-0.5l0,0c-0.2,0.2-0.4,0.4-0.6,0.5
		c-0.2,0.1-0.5,0.2-0.8,0.2c-0.2,0-0.4,0-0.6-0.1c-0.2-0.1-0.3-0.2-0.5-0.2c-0.2-0.1-0.2-0.2-0.3-0.4c0-0.2-0.1-0.4-0.1-0.6
		c0-0.5,0.2-0.8,0.5-1c0.4-0.2,0.9-0.4,1.5-0.4h0.8V7.1c0-0.3-0.1-0.5-0.2-0.6s-0.4-0.2-0.6-0.2c-0.2,0-0.3,0-0.5,0.1
		c-0.2,0.1-0.5,0.2-0.7,0.3L12.9,6.1z M15.5,8.1h-0.7c-0.5,0-0.8,0.1-1,0.2c-0.2,0.2-0.3,0.3-0.3,0.5c0,0.2,0,0.2,0.1,0.3
		c0.1,0.1,0.1,0.2,0.2,0.2c0.1,0.1,0.2,0.1,0.2,0.1c0.1,0,0.2,0,0.3,0c0.2,0,0.4-0.1,0.6-0.2c0.2-0.1,0.4-0.2,0.5-0.5L15.5,8.1
		L15.5,8.1z"/>
	<path class="st0" d="M18.4,10.1h-0.9V5.7h0.6l0.2,0.6c0.2-0.2,0.5-0.4,0.7-0.5c0.2-0.1,0.5-0.2,0.9-0.2c0.5,0,0.8,0.2,1.1,0.4
		c0.2,0.2,0.4,0.6,0.4,1v3h-0.9V7.2c0-0.2-0.1-0.5-0.2-0.6c-0.2-0.2-0.4-0.2-0.6-0.2c-0.5,0-0.9,0.2-1.3,0.6V10.1z"/>
	<path class="st0" d="M26,4.2v0.7h-1.9v5.2h-0.8V4.9h-1.8V4.2H26z"/>
	<path class="st0" d="M27.3,4.5c-0.2,0-0.2-0.1-0.4-0.2c-0.1-0.1-0.2-0.2-0.2-0.4s0.1-0.2,0.2-0.4c0.1-0.1,0.2-0.2,0.4-0.2
		c0.2,0,0.2,0.1,0.4,0.2c0.1,0.1,0.2,0.2,0.2,0.4s-0.1,0.2-0.2,0.4C27.5,4.5,27.4,4.5,27.3,4.5z M26.8,10.1V5.7h0.9v4.4H26.8z"/>
	<path class="st0" d="M31.4,6.3H30v2.6c0,0.2,0.1,0.4,0.2,0.5c0.1,0.1,0.2,0.1,0.4,0.1c0.2,0,0.2,0,0.4-0.1c0.2,0,0.3-0.1,0.4-0.1
		l0.2,0.6c-0.2,0.1-0.3,0.1-0.5,0.2c-0.2,0-0.4,0.1-0.6,0.1c-0.5,0-0.8-0.1-0.9-0.3c-0.2-0.2-0.3-0.5-0.3-0.9V6.3h-0.6V5.7h0.6V4.3
		H30v1.4h1.3L31.4,6.3L31.4,6.3z"/>
	<path class="st0" d="M32.5,6.1c0.2-0.1,0.3-0.2,0.4-0.2c0.2-0.1,0.2-0.1,0.4-0.2c0.2-0.1,0.2-0.1,0.4-0.1s0.3,0,0.5,0
		c0.2,0,0.5,0,0.7,0.1c0.2,0.1,0.4,0.2,0.5,0.2c0.2,0.2,0.2,0.3,0.3,0.5c0.1,0.2,0.2,0.5,0.2,0.8v2.9h-0.7l-0.1-0.5l0,0
		c-0.2,0.2-0.4,0.4-0.6,0.5s-0.5,0.2-0.8,0.2c-0.2,0-0.4,0-0.6-0.1c-0.2-0.1-0.3-0.2-0.5-0.2c-0.2-0.1-0.2-0.2-0.3-0.4
		c-0.1-0.2-0.1-0.3-0.1-0.5c0-0.5,0.2-0.8,0.5-1c0.4-0.2,0.9-0.4,1.5-0.4h0.9V7.1c0-0.3-0.1-0.5-0.2-0.6c-0.2-0.1-0.4-0.2-0.6-0.2
		c-0.2,0-0.3,0-0.5,0.1s-0.5,0.2-0.7,0.3L32.5,6.1z M35,8.1h-0.7c-0.5,0-0.8,0.1-1,0.2s-0.3,0.3-0.3,0.5c0,0.2,0,0.2,0.1,0.3
		c0.1,0.1,0.1,0.2,0.2,0.2c0.1,0.1,0.2,0.1,0.2,0.1c0.1,0,0.2,0,0.3,0c0.2,0,0.4-0.1,0.6-0.2c0.2-0.1,0.4-0.2,0.5-0.5L35,8.1L35,8.1
		z"/>
	<path class="st0" d="M37.9,10.1H37V5.7h0.6l0.2,0.6c0.2-0.2,0.5-0.4,0.7-0.5c0.2-0.1,0.5-0.2,0.9-0.2c0.5,0,0.8,0.2,1.1,0.4
		c0.2,0.2,0.4,0.6,0.4,1v3H40V7.2c0-0.2-0.1-0.5-0.2-0.6c-0.2-0.2-0.4-0.2-0.6-0.2c-0.5,0-0.9,0.2-1.3,0.6
		C37.9,7,37.9,10.1,37.9,10.1z"/>
</g>
</svg>
